# Blender v2.79 (sub 0) OBJ File: ''
# www.blender.org
o Cube.001
v -0.125000 0.062500 0.125000
v -0.125000 0.062500 -0.125000
v 0.125000 0.062500 0.125000
v 0.125000 0.062500 -0.125000
v -0.125000 -0.500000 0.125000
v -0.125000 -0.500000 -0.125000
v 0.125000 -0.500000 0.125000
v 0.125000 -0.500000 -0.125000
v -0.125000 -0.437500 0.125000
v -0.125000 -0.437500 -0.125000
v 0.125000 -0.437500 0.125000
v 0.125000 -0.437500 -0.125000
v 0.000000 -0.187500 0.000000
v -0.125000 -0.375000 0.125000
v -0.125000 -0.375000 -0.125000
v 0.125000 -0.375000 0.125000
v 0.125000 -0.375000 -0.125000
v 0.000000 -0.125000 0.000000
v -0.125000 -0.312500 0.125000
v -0.125000 -0.312500 -0.125000
v 0.125000 -0.312500 0.125000
v 0.125000 -0.312500 -0.125000
v 0.000000 -0.062500 0.000000
v -0.125000 -0.250000 0.125000
v -0.125000 -0.250000 -0.125000
v 0.125000 -0.250000 0.125000
v 0.125000 -0.250000 -0.125000
v 0.000000 0.000000 0.000000
v -0.125000 -0.187500 0.125000
v -0.125000 -0.187500 -0.125000
v 0.125000 -0.187500 0.125000
v 0.125000 -0.187500 -0.125000
v 0.000000 0.062500 0.000000
v -0.125000 -0.125000 0.125000
v -0.125000 -0.125000 -0.125000
v 0.125000 -0.125000 0.125000
v 0.125000 -0.125000 -0.125000
v 0.000000 0.125000 0.000000
v -0.125000 -0.062500 0.125000
v -0.125000 -0.062500 -0.125000
v 0.125000 -0.062500 0.125000
v 0.125000 -0.062500 -0.125000
v 0.000000 0.187500 0.000000
v -0.125000 0.000000 0.125000
v -0.125000 0.000000 -0.125000
v 0.125000 0.000000 0.125000
v 0.125000 0.000000 -0.125000
v 0.000000 0.250000 0.000000
v -0.125000 0.062500 0.125000
v -0.125000 0.062500 -0.125000
v 0.125000 0.062500 0.125000
v 0.125000 0.062500 -0.125000
v 0.000000 0.312500 0.000000
vt 0.625000 -0.000000
vt 0.625000 0.562500
vt 0.375000 0.562500
vt 0.375000 -0.000000
vt 0.625000 -0.000000
vt 0.625000 0.562500
vt 0.375000 0.562500
vt 0.375000 -0.000000
vt 0.625000 -0.000000
vt 0.625000 0.562500
vt 0.375000 0.562500
vt 0.375000 -0.000000
vt 0.625000 -0.000000
vt 0.625000 0.562500
vt 0.375000 0.562500
vt 0.375000 -0.000000
vt 0.000000 -0.000000
vt 1.000000 -0.000000
vt 0.500000 0.111111
vt 0.000000 -0.000000
vt 1.000000 -0.000000
vt 0.000000 -0.000000
vt 1.000000 -0.000000
vt 0.000000 -0.000000
vt 1.000000 -0.000000
vt 0.000000 0.111111
vt 1.000000 0.111111
vt 0.500000 0.222222
vt 0.000000 0.111111
vt 1.000000 0.111111
vt 0.000000 0.111111
vt 1.000000 0.111111
vt 0.000000 0.111111
vt 1.000000 0.111111
vt 0.000000 0.222222
vt 1.000000 0.222222
vt 0.500000 0.333333
vt 0.000000 0.222222
vt 1.000000 0.222222
vt 0.000000 0.222222
vt 1.000000 0.222222
vt 0.000000 0.222222
vt 1.000000 0.222222
vt 0.000000 0.333333
vt 1.000000 0.333333
vt 0.500000 0.444444
vt 0.000000 0.333333
vt 1.000000 0.333333
vt 0.000000 0.333333
vt 1.000000 0.333333
vt 0.000000 0.333333
vt 1.000000 0.333333
vt 0.000000 0.444444
vt 1.000000 0.444444
vt 0.500000 0.555556
vt 0.000000 0.444444
vt 1.000000 0.444444
vt 0.000000 0.444444
vt 1.000000 0.444444
vt 0.000000 0.444444
vt 1.000000 0.444444
vt -0.000000 0.555556
vt 1.000000 0.555556
vt 0.500000 0.666667
vt -0.000000 0.555556
vt 1.000000 0.555556
vt -0.000000 0.555556
vt 1.000000 0.555556
vt -0.000000 0.555556
vt 1.000000 0.555556
vt -0.000000 0.666667
vt 1.000000 0.666667
vt 0.500000 0.777778
vt -0.000000 0.666667
vt 1.000000 0.666667
vt -0.000000 0.666667
vt 1.000000 0.666667
vt -0.000000 0.666667
vt 1.000000 0.666667
vt -0.000000 0.777778
vt 1.000000 0.777778
vt 0.500000 0.888889
vt -0.000000 0.777778
vt 1.000000 0.777778
vt -0.000000 0.777778
vt 1.000000 0.777778
vt -0.000000 0.777778
vt 1.000000 0.777778
vt -0.000000 0.888889
vt 1.000000 0.888889
vt 0.500000 1.000000
vt -0.000000 0.888889
vt 1.000000 0.888889
vt -0.000000 0.888889
vt 1.000000 0.888889
vt -0.000000 0.888889
vt 1.000000 0.888889
vt 0.000000 0.000000
vt 1.000000 0.000000
vt 1.000000 1.000000
vt 0.000000 1.000000
vn -1.0000 0.0000 0.0000
vn 0.0000 0.0000 -1.0000
vn 1.0000 0.0000 0.0000
vn 0.0000 0.0000 1.0000
vn -0.8944 0.4472 0.0000
vn 0.0000 0.4472 0.8944
vn 0.8944 0.4472 0.0000
vn 0.0000 0.4472 -0.8944
vn 0.0000 -1.0000 0.0000
g Cube.001_Cube.001_Material
s off
f 5/1/1 1/2/1 2/3/1 6/4/1
f 6/5/2 2/6/2 4/7/2 8/8/2
f 8/9/3 4/10/3 3/11/3 7/12/3
f 7/13/4 3/14/4 1/15/4 5/16/4
g Cube.001_Cube.001_Material2
f 10/17/5 9/18/5 13/19/5
f 9/20/6 11/21/6 13/19/6
f 11/22/7 12/23/7 13/19/7
f 12/24/8 10/25/8 13/19/8
f 15/26/5 14/27/5 18/28/5
f 14/29/6 16/30/6 18/28/6
f 16/31/7 17/32/7 18/28/7
f 17/33/8 15/34/8 18/28/8
f 20/35/5 19/36/5 23/37/5
f 19/38/6 21/39/6 23/37/6
f 21/40/7 22/41/7 23/37/7
f 22/42/8 20/43/8 23/37/8
f 25/44/5 24/45/5 28/46/5
f 24/47/6 26/48/6 28/46/6
f 26/49/7 27/50/7 28/46/7
f 27/51/8 25/52/8 28/46/8
f 30/53/5 29/54/5 33/55/5
f 29/56/6 31/57/6 33/55/6
f 31/58/7 32/59/7 33/55/7
f 32/60/8 30/61/8 33/55/8
f 35/62/5 34/63/5 38/64/5
f 34/65/6 36/66/6 38/64/6
f 36/67/7 37/68/7 38/64/7
f 37/69/8 35/70/8 38/64/8
f 40/71/5 39/72/5 43/73/5
f 39/74/6 41/75/6 43/73/6
f 41/76/7 42/77/7 43/73/7
f 42/78/8 40/79/8 43/73/8
f 45/80/5 44/81/5 48/82/5
f 44/83/6 46/84/6 48/82/6
f 46/85/7 47/86/7 48/82/7
f 47/87/8 45/88/8 48/82/8
f 50/89/5 49/90/5 53/91/5
f 49/92/6 51/93/6 53/91/6
f 51/94/7 52/95/7 53/91/7
f 52/96/8 50/97/8 53/91/8
g Cube.001_Cube.001_Material3
f 6/98/9 8/99/9 7/100/9 5/101/9
